<svg width="34" height="34" viewBox="0 0 34 34" fill="none" xmlns="http://www.w3.org/2000/svg">
<rect x="1.06171" y="0.507812" width="32.4283" height="32.2024" rx="16.1012" fill="#476EE6" stroke="#D7D7D7"/>
<path d="M21.4577 12.4656C21.0329 12.4656 20.6429 12.2235 20.4479 11.85L19.9464 10.847C19.6261 10.2175 18.7904 9.69873 18.08 9.69873H16.4852C15.7679 9.69873 14.9322 10.2175 14.6118 10.847L14.1104 11.85C13.9154 12.2235 13.5254 12.4656 13.1006 12.4656C11.5894 12.4656 10.3915 13.7314 10.489 15.2255L10.8512 20.9391C10.9347 22.364 11.7078 23.533 13.6299 23.533H20.9284C22.8505 23.533 23.6166 22.364 23.7071 20.9391L24.0693 15.2255C24.1668 13.7314 22.9689 12.4656 21.4577 12.4656ZM16.2345 13.3302H18.3238C18.6093 13.3302 18.8461 13.5654 18.8461 13.849C18.8461 14.1326 18.6093 14.3678 18.3238 14.3678H16.2345C15.949 14.3678 15.7122 14.1326 15.7122 13.849C15.7122 13.5654 15.949 13.3302 16.2345 13.3302ZM17.2791 20.8492C15.9838 20.8492 14.9252 19.8047 14.9252 18.5112C14.9252 17.2177 15.9768 16.1732 17.2791 16.1732C18.5815 16.1732 19.6331 17.2177 19.6331 18.5112C19.6331 19.8047 18.5745 20.8492 17.2791 20.8492Z" fill="white"/>
</svg>
